<?xml version="1.0" encoding="utf-8"?>
<!-- Generator: Adobe Illustrator 22.1.0, SVG Export Plug-In . SVG Version: 6.00 Build 0)  -->
<svg version="1.1" id="Layer_1" xmlns="http://www.w3.org/2000/svg" xmlns:xlink="http://www.w3.org/1999/xlink" x="0px" y="0px"
	 viewBox="0 0 306 92" style="enable-background:new 0 0 306 92;" xml:space="preserve">
<style type="text/css">
	.st0{display:none;}
	.st1{display:inline;}
	.st2{fill:#FF9900;}
	.st3{fill:#FFCC33;}
	.st4{enable-background:new    ;}
	.st5{fill:#8F83D7;}
</style>
<g id="Layer_2_1_">
	<g id="Crown_2_" class="st0">
		<g class="st1">
			<path class="st2" d="M237.5,47.4C237.8,47.5,238,47.5,237.5,47.4L237.5,47.4z M244.9,38.5c-0.3,0-0.7,0.3-0.7,0.7
				c0,0.3,0.1,0.4,0.3,0.6c-1.2,1.5-2.2,2.9-3.2,4.3c-0.4,0.6-0.9,1-1.2,1.5c0-0.9,0-1.6,0-2.5c0-1.8,0-3.7,0-5.6c0,0,0,0,0.1,0
				c0.3,0,0.6-0.3,0.6-0.7s-0.3-0.7-0.6-0.7s-0.7,0.3-0.7,0.7c0,0.3,0.1,0.6,0.4,0.6c-0.7,1.9-1.6,3.8-2.4,5.6
				c-0.3,0.6-0.4,1-0.7,1.6c-0.1-0.7-0.3-1.6-0.4-2.5c-0.4-2.1-0.7-4.3-1.2-6.6c0.3,0,0.6-0.3,0.6-0.7S235.5,34,235,34
				c-0.3,0-0.6,0.3-0.6,0.7c0,0.3,0.3,0.6,0.6,0.7c-0.4,2.4-0.7,4.6-1.2,6.6c-0.1,0.9-0.3,1.8-0.4,2.5c-0.3-0.6-0.4-1-0.7-1.6
				c-0.7-1.8-1.5-3.7-2.2-5.6c0.3,0,0.4-0.3,0.4-0.6c0-0.4-0.3-0.7-0.6-0.7s-0.7,0.3-0.6,0.7c0,0.3,0.3,0.7,0.6,0.7
				c0,1.9,0,3.8,0,5.6c0,0.9,0,1.8,0,2.5c-0.4-0.4-0.7-1-1.2-1.5c-1-1.3-2.1-2.8-3.2-4.3c0.1-0.1,0.3-0.3,0.3-0.6
				c0-0.4-0.3-0.7-0.7-0.6c-0.3,0-0.6,0.3-0.6,0.7s0.3,0.7,0.7,0.7h0.1c0.4,1.5,1,2.9,1.5,4.3c0.4,1.6,0.9,6,1.5,7.4
				c0.3,0.6,0.9-0.7,1.3-1c0.7-0.7,1-1,1.6-1.5c0.4-0.4,0.6-0.3,1.2-0.7l0.3-0.1c1-0.3,0.9-0.4,1.6-0.6c0.7-0.1,1-0.1,1.2-0.1
				c1.9-0.1,1,0,1.8,0c0.1,0,0.1,0,0.3,0l0,0l0.9,0.1c0.7,0,1.2,0.3,1.5,0.6c0.1,0.1,0.3,0.1,0.3,0.1c0.6,0.1,3.1,2.1,2.9,1.5
				c-0.1-1.5,0-3.7,0.1-5.5c0.1-1.3,0.9-2.9,1.5-4.4h0.1c0.3,0,0.6-0.3,0.7-0.7C245.5,38.8,245.2,38.5,244.9,38.5z"/>
		</g>
	</g>
	<g id="Crown_3_">
		<g>
			<path class="st3" d="M223.6,44.5C223.9,44.7,223.9,44.7,223.6,44.5L223.6,44.5z M230.8,35.7c-0.3,0-0.7,0.3-0.7,0.7
				c0,0.3,0.1,0.4,0.3,0.6c-1.2,1.5-2.2,2.9-3.2,4.3c-0.4,0.6-0.9,1-1.2,1.5c0-0.9,0-1.6,0-2.5c0-1.8,0-3.7,0-5.6c0,0,0,0,0.1,0
				c0.3,0,0.6-0.3,0.6-0.7s-0.3-0.7-0.6-0.7c-0.3,0-0.7,0.3-0.7,0.7c0,0.3,0.1,0.6,0.4,0.6c-0.7,1.9-1.6,3.8-2.4,5.6
				c-0.3,0.6-0.4,1-0.7,1.6c-0.1-0.7-0.3-1.6-0.4-2.5c-0.4-2.1-0.7-4.3-1.2-6.6c0.3,0,0.6-0.3,0.6-0.7s-0.3-0.7-0.7-0.7
				c-0.3,0-0.6,0.3-0.6,0.7c0,0.3,0.3,0.6,0.6,0.7c-0.4,2.4-0.7,4.6-1.2,6.6c-0.1,0.9-0.3,1.8-0.4,2.5c-0.3-0.6-0.4-1-0.7-1.6
				c-0.7-1.8-1.5-3.7-2.2-5.6c0.3,0,0.4-0.3,0.4-0.6c0-0.4-0.3-0.7-0.6-0.7c-0.3,0-0.7,0.3-0.6,0.7c0,0.3,0.3,0.7,0.6,0.7
				c0,1.9,0,3.8,0,5.6c0,0.9,0,1.8,0,2.5c-0.4-0.4-0.7-1-1.2-1.5c-1-1.3-2.1-2.8-3.2-4.3c0.1-0.1,0.3-0.3,0.3-0.6
				c0-0.4-0.3-0.7-0.7-0.6c-0.3,0-0.6,0.3-0.6,0.7s0.3,0.7,0.7,0.7h0.1c0.4,1.5,1,2.9,1.5,4.3c0.4,1.6,3.1,9.8,3.7,11.2
				c0.3,0.2,0.7-4.6,1.2-3.2c0.7-0.7,0.3-1.7,0.8-2.1c0.5-0.1,0,0.3,1.7-0.5l-0.5-0.7c0-1-0.1-1.2,0.6-1.3c0.7-0.1,1-0.1,1.2-0.1
				c1.9-0.1,1,0,1.8,0c0.1,0,0.1,0,0.3,0l0,0l0.9,0.1c0.7,0,1.2,0.3,1.5,0.6c0.1,0.1,0.3,0.1,0.3,0.1c0.6,0.1,3.1,2.1,2.9,1.5
				c-0.1-1.5,0-3.7,0.1-5.5c0.1-1.3,0.9-2.9,1.5-4.4h0.1c0.3,0,0.6-0.3,0.7-0.7C231.6,36,231.3,35.7,230.8,35.7z"/>
		</g>
	</g>
</g>
<g id="logo" image-rendering="auto">
	<g class="st4">
		<path class="st5" d="M36.6,56.2c1.3-1.8,2.6-3.9,3.9-6c-1.9-3-3.4-5.1-4.7-6.8c-0.2-0.3-0.5,0.1-0.8-0.1c-0.6-0.6-2.4-3.2-2.2-3.6
			c0.6-1.1,3-2.6,3.9-1.9c1.2,1,4.1,5.3,6.2,8.5c3.2-5.1,6.2-9.4,8.3-9.4c1.6,0,3.8,2.7,3.6,3.2c-4.6,3.2-14.4,20.7-16.5,23.2
			c-0.7,0-4.8-1.6-4.7-2.1c0.2-1.2,1.1-3.2,1.9-4.7C35.9,55.8,36.4,56.4,36.6,56.2z"/>
		<path class="st5" d="M56.7,42.6c0.6,0.2,1,0.5,1.2,0.8c0,0,0.7-0.4,1.6-0.4c5,0,5.8,3,5.7,6.1c-0.2,3.4-2,10.6-8.1,10.6
			c-5,0-6.8-4.2-6.7-7.6C50.7,48.3,53.6,43.2,56.7,42.6z M56.6,56.8c2.4,0,3.7-7,3.8-8.6c0.1-0.8,0.3-2.6-0.7-2.6
			c-1.5,0-3.1,4.6-3.4,6.1c0,0.1-0.6-0.1-0.8-0.2c0,0-0.2,0.8-0.3,1.7C55.1,55.2,55.5,56.8,56.6,56.8z"/>
		<path class="st5" d="M75.6,54.9c-0.6,1.4-2.3,4.3-4.4,4.3c-2,0-4.8-2.3-4.8-4.3c0-3.5,1.9-11.4,3.5-11.4c2.1,0,3.4,0.8,3.6,1.1
			c-1.1,3.2-2.6,8.4-2.2,10.7l0.3,0.2c1.8-1.8,4.1-8.9,4.7-11.7c0.1-0.2,0.5-0.4,1.2-0.4c1.3,0,3.4,1.2,3.3,1.7
			c-0.2,1.4-1.3,7-1.4,9c-0.1,1.1,0.2,2.1,1,2.1c1.2,0,2-3.1,2-3.1c0.2,0,2.3-0.1,2.3,1.6S82.5,59,79.3,59c-3.4,0-3.9-2.2-3.8-3.9
			L75.6,54.9z"/>
		<path class="st5" d="M89.4,48.9c0.8-1.7,1.4-4,1.7-5.2c0.3-0.9,1.3-1.2,2.9-0.9c1.5,0.3,1.6,1,1.6,1.5c-0.1,1-1.6,3-1.7,4.9
			c0,0.4,0.2,0.8,0.7,0.8c1.5,0,2.3-2.6,2.4-2.6c0.2,0,1.8,0,1.8,1.4c0,1.8-1.6,4.1-3.9,4.1c-2.7,0-3.2-2.1-3.2-3.5
			c-0.8,1.6-2.3,6.2-2.6,9.8c-1.1,0.4-5.4-0.8-5.4-1.5c0-0.9,0.4-3.7,1-9.2c0.2-2.3,0.5-5.5,2.1-5.5c1.2,0,3.1,1,3.1,1
			c-0.2,1.4-0.6,3.3-0.8,4.8L89.4,48.9z"/>
		<path class="st5" d="M109.3,47.7c-1.1,2.7-2.2,9-2.6,12.7c-0.3,0.3-3.7,0-5.4-1.2c-2.9-3.6-2.3-16.8-1.1-21.9
			c0.5-1.4,4-0.5,5.3,0.9c-0.6,5.5-1.4,11.5-0.8,14.3h0.2c0.8-4.2,2.3-9.5,4.3-13.3c0.9-1.4,5,0.6,5.2,1.2
			c-0.2,4.6,0.1,8.5,0.7,12.3c0.8-5.3,3.9-15.9,6-16.1c2.3-0.1,4.1,1.1,4,2.1c-3.9,6.7-5.9,13.7-7.7,22.5c-0.7,0.1-3.2,0-5.4-1
			c-0.9-0.5-1.7-7.7-2.3-12.5C109.7,47.7,109.3,47.7,109.3,47.7z"/>
		<path class="st5" d="M129.3,42.3c1.7,0,5,1.3,5,4.6c0,3.8-2.3,6.8-4.3,6.8c-1.7,0-2.5-1.3-2.6-1.4c0,0.1-0.7,1.6-0.7,3.6
			c0,1.5,0.7,2.1,1.8,2.1c2.8,0,4.5-3.2,4.8-4.9c0,0,0.3-0.2,0.8-0.2c1.4,0,2.5,0.5,2.5,1.8c0,2.4-2.3,6.2-7.4,6.2
			c-3.5,0-7.2-2.1-7.2-5.9C122,49.5,124.7,42.3,129.3,42.3z M128.4,51c1,0,1.8-2.8,1.8-4.8c0-1.1-0.2-1.2-0.3-1.2s-0.2,0.1-0.4,0.5
			c-0.7,1.4-1.4,3.4-1.7,4.9C127.8,50.3,127.9,51,128.4,51z"/>
		<path class="st5" d="M140.8,36.3c1.5-0.3,4.1,0.8,4.1,1.6c-0.5,1.3-2.1,5.8-2.6,7.6c1-1.4,1.9-2.6,3.5-2.6c2.6,0,5.2,2.8,5.2,5.6
			c0,2.5-1.9,10.9-7.6,10.9c-4.7,0-7.1-2.3-7.1-6.2C136.2,47.8,140,36.5,140.8,36.3z M141.5,51.6c0,0-0.3,1.1-0.5,2.9
			c-0.1,1,0.5,1.9,1.2,1.9c2.7,0,3.8-8.8,3.8-9.1c0-0.8,0.1-1.6-0.5-1.6c-1.5,0-3,4.4-3.2,6l-0.3,0.1L141.5,51.6z"/>
		<path class="st5" d="M157.9,48.2c0,0,6.8,2.3,6.8,7.5c0,3.5-2.8,4.7-5.9,4.7c-3.8,0-7.7-3.2-7.7-5.6c0-1.7,1-3.7,2.7-3.7
			c1.6,0,3,1.2,2.9,1.4c-0.1,0.8-1.4,3.1-1.4,3.3s0.4,1.3,1.8,1.3c1.5,0,2.4-1.2,2.4-3c0-2.6-3.5-4.7-5.6-5
			c-0.4-0.4-1.2-2.7-1.1-3.5c0.2-1.3,10.8-3.2,11.5-3.2c0.5,0,1.9,2.2,1.9,2.7c0,1.1-2.5,2.8-3.6,2.8c-0.5,0-0.6-0.8-1-0.8
			c-1.2,0-3.2,0.6-3.5,0.8L157.9,48.2z"/>
		<path class="st5" d="M169.2,44.1c0.1-0.3,0.5-0.4,0.8-0.4c0.9,0,4.7,0.8,4.2,2.3c-0.7,2.3-2.2,7.3-2.3,9.4c-0.1,1,0.3,1.4,0.6,1.4
			c1.5,0,2.3-2.9,2.5-3.9c0,0,2.6-0.1,2.6,2s-3.1,4.9-6.7,4.9c-2.9,0-4.7-1.4-4.7-4.3C166.3,52.8,168.3,46.2,169.2,44.1z M169.9,40
			c0-1,0.7-4,3.4-4c1.4,0,2.2,0.2,1.8,1.3c0.8,0.3,1.6,0.7,1.6,1.6c0,1.1-1.1,3.3-4.6,3.3C171.3,42.2,169.9,41.6,169.9,40z"/>
		<path class="st5" d="M176,44.3c0.5-0.3,2.3-0.6,4.3-0.9c0.8-2,1.6-3.6,2.2-3.8c0.8-0.4,4,1.1,3.9,1.4l-0.6,1.8l1-0.1
			c1-0.1,1.9-0.2,2.1,0.2c0.3,0.4,0.9,0.7,1.6,1c0.2,0.1,0.9,1.7,0.9,1.8c0,0.2-0.1,0.5-0.7,0.5c-1.7,0-3.9,0.2-6.1,0.4
			c-1,3.3-1.9,6.7-1.9,8.6c0,0.9,0.4,1.3,0.9,1.3c2.3,0,3.9-2.8,4.1-4.2c0,0,2.6-0.4,2.6,2.3c0,3.1-4,5.1-7.7,5.1
			c-3.1,0-5.3-2-5.3-5.2c0-1.5,0.7-4.3,1.6-7.1c-0.5,0.1-1,0.1-1.3,0.2C176.5,47.6,175.4,44.7,176,44.3z"/>
		<path class="st5" d="M197.4,42.3c1.7,0,4.9,1.3,4.9,4.6c0,3.8-2.3,6.8-4.3,6.8c-1.7,0-2.5-1.3-2.6-1.4c0,0.1-0.7,1.6-0.7,3.6
			c0,1.5,0.7,2.1,1.8,2.1c2.8,0,4.5-3.2,4.8-4.9c0,0,0.3-0.2,0.8-0.2c1.4,0,2.5,0.5,2.5,1.8c0,2.4-2.3,6.2-7.4,6.2
			c-3.5,0-7.2-2.1-7.2-5.9C190.2,49.5,192.9,42.3,197.4,42.3z M196.6,51c1,0,1.8-2.8,1.8-4.8c0-1.1-0.2-1.2-0.3-1.2
			s-0.2,0.1-0.4,0.5c-0.7,1.4-1.4,3.4-1.7,4.9C195.9,50.3,196,51,196.6,51z"/>
		<path class="st5" d="M211.5,53.1c0.8,0,2.2,0.7,2.2,2.4c0,1.1-0.6,4.4-3.3,4.4c-1.3,0-2-0.4-2-1.5c-0.9-0.3-1.3-0.8-1.3-1.8
			C207,55.5,208.2,53.1,211.5,53.1z"/>
		<path class="st5" d="M223.9,43.4c2.3,0,5.5,1.4,5.5,3.9c0,2.7-1.4,4.4-3,4.4c-1.2,0-1.8-0.5-2.1-1.3v-0.2c0,0,1.1-1.8,1.2-3.5
			c0-0.4-0.1-0.6-0.4-0.6c-1.3,0-3,3.4-3,7.7c0,2.7,1.1,3.5,2.4,3.5c2.3,0,3.8-2.5,4.1-4.6c0,0,0.7-0.4,1.4-0.4c1.2,0,2,0.8,2,2.3
			c0,1.9-2.1,5.6-7.7,5.6c-4.2,0-7.8-2.6-7.8-6.8C216.5,49.2,218.9,43.4,223.9,43.4z"/>
		<path class="st5" d="M237.2,42.6c0.6,0.2,1,0.5,1.2,0.8c0,0,0.7-0.4,1.6-0.4c5,0,5.8,3,5.7,6.1c-0.2,3.4-2,10.6-8.1,10.6
			c-5,0-6.8-4.2-6.7-7.6C231.2,48.3,234.2,43.2,237.2,42.6z M237.2,56.8c2.4,0,3.7-7,3.8-8.6c0.1-0.8,0.3-2.6-0.7-2.6
			c-1.5,0-3.1,4.6-3.4,6.1c0,0.1-0.6-0.1-0.8-0.2c0,0-0.2,0.8-0.3,1.7C235.6,55.2,236.1,56.8,237.2,56.8z"/>
		<path class="st5" d="M255.1,50.3c-1,2.3-2.3,6.3-2.5,8.7c0,0-0.8,0.5-1.6,0.5c-2.5,0-3.9-1.4-3.9-3.9c0-5.2,2.1-12.8,3.1-12.8
			c1.4,0,3.4,0.9,3.3,1.4c-0.7,2.6-1.6,5.9-1.7,7.6h0.1c1.2-2.9,2.3-6.2,3.1-8.1c0.1-0.2,1-0.3,1.4-0.3c2.3,0,4.1,1,4,1.9
			c-0.2,1.8-0.8,4.8-1,6.8h0.1c1.2-2.9,2.1-6.3,3.8-9.1c0.1-0.2,0.8-0.5,1.5-0.5c2.1,0,4.6,1.2,4.4,2.1c-0.6,3-2.4,7.6-2.4,10.5
			c0,1.3,0.3,2,1,2c1,0,1.8-2.2,2-2.8c0,0,2.3-0.4,2.3,1.4c0,1.6-1.5,4.2-5,4.2c-3.8,0-4.9-2-4.7-4.4c0.1-1.1,0.6-3.7,1-5.1H263
			c-1.2,2.3-2.6,7.1-2.8,9.6c0,0-0.7,0.4-1.7,0.4c-2.5,0-3.8-1.3-3.7-3.3c0.1-2.2,0.3-4.7,0.6-6.8C255.4,50.3,255.1,50.3,255.1,50.3
			z"/>
	</g>
</g>
</svg>
